<svg width="100%" viewBox="0 0 900 240" xmlns="http://www.w3.org/2000/svg">

  <!-- Background -->
  <rect width="900" height="240" fill="#0d1117"/>

  <!-- Dot grid -->
  <g fill="#6d28d9" opacity="0.18">
    <rect x="40"  y="20"  width="2" height="2" rx="1"/> <rect x="80"  y="20"  width="2" height="2" rx="1"/> <rect x="120" y="20"  width="2" height="2" rx="1"/> <rect x="160" y="20"  width="2" height="2" rx="1"/> <rect x="200" y="20"  width="2" height="2" rx="1"/> <rect x="240" y="20"  width="2" height="2" rx="1"/> <rect x="280" y="20"  width="2" height="2" rx="1"/> <rect x="320" y="20"  width="2" height="2" rx="1"/> <rect x="360" y="20"  width="2" height="2" rx="1"/> <rect x="400" y="20"  width="2" height="2" rx="1"/> <rect x="440" y="20"  width="2" height="2" rx="1"/> <rect x="480" y="20"  width="2" height="2" rx="1"/> <rect x="520" y="20"  width="2" height="2" rx="1"/> <rect x="560" y="20"  width="2" height="2" rx="1"/> <rect x="600" y="20"  width="2" height="2" rx="1"/> <rect x="640" y="20"  width="2" height="2" rx="1"/> <rect x="680" y="20"  width="2" height="2" rx="1"/> <rect x="720" y="20"  width="2" height="2" rx="1"/> <rect x="760" y="20"  width="2" height="2" rx="1"/> <rect x="800" y="20"  width="2" height="2" rx="1"/> <rect x="840" y="20"  width="2" height="2" rx="1"/> <rect x="880" y="20"  width="2" height="2" rx="1"/>
    <rect x="40"  y="55"  width="2" height="2" rx="1"/> <rect x="80"  y="55"  width="2" height="2" rx="1"/> <rect x="120" y="55"  width="2" height="2" rx="1"/> <rect x="160" y="55"  width="2" height="2" rx="1"/> <rect x="200" y="55"  width="2" height="2" rx="1"/> <rect x="240" y="55"  width="2" height="2" rx="1"/> <rect x="280" y="55"  width="2" height="2" rx="1"/> <rect x="320" y="55"  width="2" height="2" rx="1"/> <rect x="360" y="55"  width="2" height="2" rx="1"/> <rect x="400" y="55"  width="2" height="2" rx="1"/> <rect x="440" y="55"  width="2" height="2" rx="1"/> <rect x="480" y="55"  width="2" height="2" rx="1"/> <rect x="520" y="55"  width="2" height="2" rx="1"/> <rect x="560" y="55"  width="2" height="2" rx="1"/> <rect x="600" y="55"  width="2" height="2" rx="1"/> <rect x="640" y="55"  width="2" height="2" rx="1"/> <rect x="680" y="55"  width="2" height="2" rx="1"/> <rect x="720" y="55"  width="2" height="2" rx="1"/> <rect x="760" y="55"  width="2" height="2" rx="1"/> <rect x="800" y="55"  width="2" height="2" rx="1"/> <rect x="840" y="55"  width="2" height="2" rx="1"/> <rect x="880" y="55"  width="2" height="2" rx="1"/>
    <rect x="40"  y="90"  width="2" height="2" rx="1"/> <rect x="80"  y="90"  width="2" height="2" rx="1"/> <rect x="120" y="90"  width="2" height="2" rx="1"/> <rect x="160" y="90"  width="2" height="2" rx="1"/> <rect x="200" y="90"  width="2" height="2" rx="1"/> <rect x="240" y="90"  width="2" height="2" rx="1"/> <rect x="280" y="90"  width="2" height="2" rx="1"/> <rect x="320" y="90"  width="2" height="2" rx="1"/> <rect x="360" y="90"  width="2" height="2" rx="1"/> <rect x="400" y="90"  width="2" height="2" rx="1"/> <rect x="440" y="90"  width="2" height="2" rx="1"/> <rect x="480" y="90"  width="2" height="2" rx="1"/> <rect x="520" y="90"  width="2" height="2" rx="1"/> <rect x="560" y="90"  width="2" height="2" rx="1"/> <rect x="600" y="90"  width="2" height="2" rx="1"/> <rect x="640" y="90"  width="2" height="2" rx="1"/> <rect x="680" y="90"  width="2" height="2" rx="1"/> <rect x="720" y="90"  width="2" height="2" rx="1"/> <rect x="760" y="90"  width="2" height="2" rx="1"/> <rect x="800" y="90"  width="2" height="2" rx="1"/> <rect x="840" y="90"  width="2" height="2" rx="1"/> <rect x="880" y="90"  width="2" height="2" rx="1"/>
    <rect x="40"  y="125" width="2" height="2" rx="1"/> <rect x="80"  y="125" width="2" height="2" rx="1"/> <rect x="120" y="125" width="2" height="2" rx="1"/> <rect x="160" y="125" width="2" height="2" rx="1"/> <rect x="200" y="125" width="2" height="2" rx="1"/> <rect x="240" y="125" width="2" height="2" rx="1"/> <rect x="280" y="125" width="2" height="2" rx="1"/> <rect x="320" y="125" width="2" height="2" rx="1"/> <rect x="360" y="125" width="2" height="2" rx="1"/> <rect x="400" y="125" width="2" height="2" rx="1"/> <rect x="440" y="125" width="2" height="2" rx="1"/> <rect x="480" y="125" width="2" height="2" rx="1"/> <rect x="520" y="125" width="2" height="2" rx="1"/> <rect x="560" y="125" width="2" height="2" rx="1"/> <rect x="600" y="125" width="2" height="2" rx="1"/> <rect x="640" y="125" width="2" height="2" rx="1"/> <rect x="680" y="125" width="2" height="2" rx="1"/> <rect x="720" y="125" width="2" height="2" rx="1"/> <rect x="760" y="125" width="2" height="2" rx="1"/> <rect x="800" y="125" width="2" height="2" rx="1"/> <rect x="840" y="125" width="2" height="2" rx="1"/> <rect x="880" y="125" width="2" height="2" rx="1"/>
    <rect x="40"  y="160" width="2" height="2" rx="1"/> <rect x="80"  y="160" width="2" height="2" rx="1"/> <rect x="120" y="160" width="2" height="2" rx="1"/> <rect x="160" y="160" width="2" height="2" rx="1"/> <rect x="200" y="160" width="2" height="2" rx="1"/> <rect x="240" y="160" width="2" height="2" rx="1"/> <rect x="280" y="160" width="2" height="2" rx="1"/> <rect x="320" y="160" width="2" height="2" rx="1"/> <rect x="360" y="160" width="2" height="2" rx="1"/> <rect x="400" y="160" width="2" height="2" rx="1"/> <rect x="440" y="160" width="2" height="2" rx="1"/> <rect x="480" y="160" width="2" height="2" rx="1"/> <rect x="520" y="160" width="2" height="2" rx="1"/> <rect x="560" y="160" width="2" height="2" rx="1"/> <rect x="600" y="160" width="2" height="2" rx="1"/> <rect x="640" y="160" width="2" height="2" rx="1"/> <rect x="680" y="160" width="2" height="2" rx="1"/> <rect x="720" y="160" width="2" height="2" rx="1"/> <rect x="760" y="160" width="2" height="2" rx="1"/> <rect x="800" y="160" width="2" height="2" rx="1"/> <rect x="840" y="160" width="2" height="2" rx="1"/> <rect x="880" y="160" width="2" height="2" rx="1"/>
    <rect x="40"  y="195" width="2" height="2" rx="1"/> <rect x="80"  y="195" width="2" height="2" rx="1"/> <rect x="120" y="195" width="2" height="2" rx="1"/> <rect x="160" y="195" width="2" height="2" rx="1"/> <rect x="200" y="195" width="2" height="2" rx="1"/> <rect x="240" y="195" width="2" height="2" rx="1"/> <rect x="280" y="195" width="2" height="2" rx="1"/> <rect x="320" y="195" width="2" height="2" rx="1"/> <rect x="360" y="195" width="2" height="2" rx="1"/> <rect x="400" y="195" width="2" height="2" rx="1"/> <rect x="440" y="195" width="2" height="2" rx="1"/> <rect x="480" y="195" width="2" height="2" rx="1"/> <rect x="520" y="195" width="2" height="2" rx="1"/> <rect x="560" y="195" width="2" height="2" rx="1"/> <rect x="600" y="195" width="2" height="2" rx="1"/> <rect x="640" y="195" width="2" height="2" rx="1"/> <rect x="680" y="195" width="2" height="2" rx="1"/> <rect x="720" y="195" width="2" height="2" rx="1"/> <rect x="760" y="195" width="2" height="2" rx="1"/> <rect x="800" y="195" width="2" height="2" rx="1"/> <rect x="840" y="195" width="2" height="2" rx="1"/> <rect x="880" y="195" width="2" height="2" rx="1"/>
    <rect x="40"  y="230" width="2" height="2" rx="1"/> <rect x="80"  y="230" width="2" height="2" rx="1"/> <rect x="120" y="230" width="2" height="2" rx="1"/> <rect x="160" y="230" width="2" height="2" rx="1"/> <rect x="200" y="230" width="2" height="2" rx="1"/> <rect x="240" y="230" width="2" height="2" rx="1"/> <rect x="280" y="230" width="2" height="2" rx="1"/> <rect x="320" y="230" width="2" height="2" rx="1"/> <rect x="360" y="230" width="2" height="2" rx="1"/> <rect x="400" y="230" width="2" height="2" rx="1"/> <rect x="440" y="230" width="2" height="2" rx="1"/> <rect x="480" y="230" width="2" height="2" rx="1"/> <rect x="520" y="230" width="2" height="2" rx="1"/> <rect x="560" y="230" width="2" height="2" rx="1"/> <rect x="600" y="230" width="2" height="2" rx="1"/> <rect x="640" y="230" width="2" height="2" rx="1"/> <rect x="680" y="230" width="2" height="2" rx="1"/> <rect x="720" y="230" width="2" height="2" rx="1"/> <rect x="760" y="230" width="2" height="2" rx="1"/> <rect x="800" y="230" width="2" height="2" rx="1"/> <rect x="840" y="230" width="2" height="2" rx="1"/> <rect x="880" y="230" width="2" height="2" rx="1"/>
  </g>

  <!-- Glow orbs (radial gradient ellipses) -->
  <defs>
    <radialGradient id="g1" cx="50%" cy="50%" r="50%">
      <stop offset="0%" stop-color="#7c3aed" stop-opacity="0.5"/>
      <stop offset="100%" stop-color="#7c3aed" stop-opacity="0"/>
    </radialGradient>
    <radialGradient id="g2" cx="50%" cy="50%" r="50%">
      <stop offset="0%" stop-color="#4c1d95" stop-opacity="0.3"/>
      <stop offset="100%" stop-color="#4c1d95" stop-opacity="0"/>
    </radialGradient>
  </defs>
  <ellipse cx="450" cy="120" rx="360" ry="140" fill="url(#g1)"/>
  <ellipse cx="130" cy="65"  rx="170" ry="90"  fill="url(#g2)"/>
  <ellipse cx="780" cy="175" rx="150" ry="80"  fill="url(#g2)"/>

  <!-- Border lines -->
  <line x1="0" y1="1"   x2="900" y2="1"   stroke="#6d28d9" stroke-width="2"   opacity="0.7"/>
  <line x1="0" y1="238" x2="900" y2="238" stroke="#6d28d9" stroke-width="1.5" opacity="0.5"/>

  <!-- Corner brackets -->
  <line x1="0"   y1="30"  x2="54"  y2="30"  stroke="#6d28d9" stroke-width="0.8" opacity="0.5"/>
  <line x1="54"  y1="1"   x2="54"  y2="30"  stroke="#6d28d9" stroke-width="0.8" opacity="0.5"/>
  <line x1="900" y1="30"  x2="846" y2="30"  stroke="#6d28d9" stroke-width="0.8" opacity="0.5"/>
  <line x1="846" y1="1"   x2="846" y2="30"  stroke="#6d28d9" stroke-width="0.8" opacity="0.5"/>
  <line x1="0"   y1="208" x2="54"  y2="208" stroke="#6d28d9" stroke-width="0.8" opacity="0.5"/>
  <line x1="54"  y1="208" x2="54"  y2="239" stroke="#6d28d9" stroke-width="0.8" opacity="0.5"/>
  <line x1="900" y1="208" x2="846" y2="208" stroke="#6d28d9" stroke-width="0.8" opacity="0.5"/>
  <line x1="846" y1="208" x2="846" y2="239" stroke="#6d28d9" stroke-width="0.8" opacity="0.5"/>

  <!-- Name -->
  <text
    x="450" y="108"
    text-anchor="middle"
    font-family="monospace, 'Courier New', Courier"
    font-size="58"
    font-weight="700"
    fill="#a78bfa"
    letter-spacing="-1"
  >Piyush Pal</text>

  <!-- Divider under name -->
  <line x1="310" y1="122" x2="590" y2="122" stroke="#6d28d9" stroke-width="0.8" opacity="0.5"/>

  <!-- Pill tags -->
  <!-- Tag 1 -->
  <rect x="140" y="136" width="148" height="24" rx="12" fill="#120a2e" stroke="#6d28d9" stroke-width="0.8"/>
  <text x="214" y="152" text-anchor="middle" font-family="monospace, 'Courier New', Courier" font-size="12" fill="#a78bfa">AI / ML Engineer</text>

  <!-- Tag 2 -->
  <rect x="314" y="136" width="172" height="24" rx="12" fill="#120a2e" stroke="#6d28d9" stroke-width="0.8"/>
  <text x="400" y="152" text-anchor="middle" font-family="monospace, 'Courier New', Courier" font-size="12" fill="#a78bfa">B.Tech CSE (AI/ML)</text>

  <!-- Tag 3 -->
  <rect x="512" y="136" width="188" height="24" rx="12" fill="#120a2e" stroke="#6d28d9" stroke-width="0.8"/>
  <text x="606" y="152" text-anchor="middle" font-family="monospace, 'Courier New', Courier" font-size="12" fill="#a78bfa">Building Real Systems</text>

</svg>
